<svg width="171" height="34" viewBox="0 0 171 34" fill="none" xmlns="http://www.w3.org/2000/svg">
<path d="M47.4837 25.7458C46.6539 24.6294 46.2344 23.2608 46.296 21.8709V2.79165C46.2888 2.65942 46.3097 2.52717 46.3574 2.40364C46.405 2.28011 46.4784 2.16811 46.5725 2.07504C46.7621 1.89903 47.0135 1.80504 47.272 1.8135C47.4032 1.8019 47.5353 1.81921 47.659 1.86421C47.7828 1.90922 47.8952 1.98082 47.9883 2.07397C48.0814 2.16713 48.1529 2.27957 48.1979 2.40338C48.2429 2.5272 48.2602 2.65938 48.2486 2.7906V21.8709C48.2125 22.7351 48.4334 23.5907 48.8833 24.3293C49.0491 24.6193 49.2882 24.8605 49.5766 25.0288C49.865 25.197 50.1925 25.2865 50.5264 25.2881H51.3398C51.4508 25.2853 51.5609 25.3074 51.6622 25.3526C51.7635 25.3979 51.8534 25.4652 51.9254 25.5497C52.087 25.7523 52.1681 26.0075 52.1533 26.2663C52.1619 26.525 52.0679 26.7765 51.8919 26.9662C51.7989 27.0602 51.687 27.1335 51.5637 27.1812C51.4403 27.2289 51.3083 27.2499 51.1762 27.2429H50.5264C49.9369 27.2528 49.3535 27.1222 48.8244 26.8619C48.2953 26.6016 47.8358 26.219 47.4837 25.7458Z" fill="white"/>
<path d="M53.8037 5.25014C53.6643 5.10562 53.5551 4.93472 53.4825 4.74746C53.4099 4.56019 53.3753 4.36032 53.3808 4.15953C53.3686 3.95257 53.4032 3.74552 53.482 3.55379C53.5609 3.36206 53.6819 3.1906 53.8362 3.05217C54.1338 2.79398 54.5161 2.65483 54.91 2.66143C55.2992 2.653 55.6772 2.79264 55.9676 3.05217C56.1174 3.19326 56.2344 3.36559 56.3103 3.55695C56.3862 3.74831 56.4191 3.95403 56.4067 4.15953C56.4106 4.36152 56.3737 4.56223 56.2983 4.74963C56.2228 4.93702 56.1103 5.10725 55.9676 5.25011C55.8248 5.39297 55.6546 5.50552 55.4673 5.58103C55.28 5.65653 55.0794 5.69344 54.8776 5.68953C54.6778 5.69566 54.479 5.65971 54.294 5.58402C54.109 5.50832 53.942 5.39457 53.8037 5.25014ZM54.2105 26.9673C54.119 26.8757 54.0473 26.7664 53.9997 26.646C53.9521 26.5256 53.9298 26.3968 53.9339 26.2674V10.4103C53.9268 10.2782 53.9477 10.146 53.9954 10.0225C54.0431 9.89911 54.1164 9.78719 54.2105 9.6942C54.4 9.51805 54.6514 9.42403 54.91 9.43266C55.0411 9.42108 55.1731 9.43838 55.2968 9.48335C55.4206 9.52832 55.5329 9.59988 55.626 9.69297C55.7191 9.78607 55.7907 9.89844 55.8357 10.0222C55.8807 10.1459 55.8981 10.2781 55.8866 10.4092V26.2669C55.8951 26.5255 55.8011 26.7771 55.6252 26.9667C55.5322 27.0608 55.4203 27.1341 55.2969 27.1818C55.1736 27.2295 55.0415 27.2505 54.9094 27.2434C54.7803 27.2474 54.6518 27.2249 54.5317 27.1773C54.4116 27.1297 54.3024 27.058 54.211 26.9667L54.2105 26.9673Z" fill="white"/>
<path d="M60.8297 26.7455C59.6839 26.3335 58.6638 25.6327 57.8681 24.7107C57.7214 24.5509 57.64 24.3418 57.6401 24.1248C57.6407 23.9742 57.6799 23.8263 57.7539 23.6951C57.828 23.564 57.9344 23.454 58.0631 23.3758C58.2226 23.2582 58.4184 23.2006 58.6162 23.2131C58.7603 23.21 58.9032 23.2407 59.0334 23.3028C59.1636 23.3648 59.2774 23.4565 59.3659 23.5704C60.4505 24.8955 62.1968 25.5581 64.6048 25.5581C66.3185 25.5581 67.5822 25.2542 68.396 24.6464C68.7764 24.3862 69.0868 24.0362 69.2997 23.6274C69.5125 23.2185 69.6212 22.7634 69.6162 22.3024C69.6162 20.5881 67.9567 19.492 64.6377 19.0139C62.5333 18.7101 60.9442 18.1347 59.8704 17.2877C59.3784 16.9421 58.9757 16.4843 58.6956 15.9521C58.4155 15.4199 58.266 14.8286 58.2596 14.2272C58.2268 13.5159 58.3683 12.8073 58.6717 12.1632C58.9751 11.5191 59.4313 10.959 60.0005 10.5316C61.3263 9.60185 62.9227 9.1381 64.5399 9.21297C67.2734 9.21297 69.3452 10.1894 70.7554 12.1422C70.8861 12.2964 70.9555 12.4934 70.9504 12.6956C70.9424 12.8569 70.8891 13.0128 70.7967 13.1452C70.7042 13.2776 70.5763 13.3812 70.4276 13.4441C70.2735 13.5153 70.1083 13.5594 69.9393 13.5744C69.7796 13.5749 69.6222 13.5366 69.4806 13.4629C69.3389 13.3892 69.2172 13.2823 69.1258 13.1512C68.575 12.4529 67.8654 11.8965 67.056 11.5284C66.2466 11.1602 65.361 10.991 64.473 11.0348C63.3555 10.9762 62.2488 11.2788 61.3164 11.8979C60.9602 12.1289 60.6668 12.4445 60.4623 12.8167C60.2579 13.1888 60.1488 13.6059 60.1448 14.0305C60.1381 14.445 60.2378 14.8543 60.4344 15.2192C60.631 15.5841 60.918 15.8923 61.2678 16.1144C62.0161 16.6354 63.2689 17.0262 65.0261 17.2867C67.3264 17.612 68.9807 18.2252 69.989 19.1263C70.4666 19.5264 70.8499 20.0272 71.1115 20.5928C71.3732 21.1585 71.5067 21.7749 71.5025 22.3982C71.5137 23.3648 71.1724 24.3024 70.5426 25.0355C69.8541 25.8294 68.9748 26.4346 67.9877 26.7941C66.8757 27.2153 65.6949 27.425 64.5059 27.4124C63.2504 27.413 62.0051 27.1871 60.8297 26.7455Z" fill="white"/>
<path d="M80.7274 25.534C80.8208 25.6309 80.8935 25.7458 80.941 25.8717C80.9886 25.9976 81.01 26.1318 81.0039 26.2663C81.0079 26.3957 80.9855 26.5245 80.9379 26.6448C80.8904 26.7652 80.8187 26.8745 80.7274 26.9662C80.6305 27.0595 80.5156 27.1321 80.3898 27.1797C80.264 27.2272 80.1298 27.2487 79.9955 27.2429H79.2468C78.1301 27.2627 77.0286 26.9816 76.0578 26.429C75.1393 25.9012 74.3847 25.1292 73.8778 24.1986C73.347 23.2142 73.0781 22.1099 73.0967 20.9916V4.77622C73.0906 4.64175 73.112 4.50745 73.1595 4.38154C73.2071 4.25562 73.2798 4.14074 73.3733 4.04391C73.4651 3.95248 73.5747 3.88086 73.6953 3.83345C73.8159 3.78604 73.9449 3.76385 74.0743 3.76825C74.209 3.75974 74.3439 3.78001 74.4702 3.82771C74.5964 3.8754 74.711 3.94943 74.8065 4.04486C74.9019 4.1403 74.976 4.25497 75.0237 4.38125C75.0714 4.50752 75.0917 4.64252 75.0833 4.77726V10.0844H79.3786C79.4965 10.0803 79.6141 10.1001 79.7243 10.1424C79.8344 10.1848 79.935 10.2489 80.0199 10.3309C80.1047 10.413 80.1722 10.5113 80.2184 10.62C80.2645 10.7287 80.2882 10.8456 80.2882 10.9637C80.2882 11.0818 80.2645 11.1987 80.2184 11.3074C80.1722 11.4161 80.1047 11.5144 80.0199 11.5964C79.935 11.6785 79.8344 11.7426 79.7243 11.785C79.6141 11.8273 79.4965 11.8471 79.3786 11.843H75.0833V20.9921C75.061 21.5575 75.1534 22.1216 75.3547 22.6503C75.556 23.1791 75.8622 23.6616 76.2549 24.0689C76.6504 24.4648 77.1233 24.7748 77.6441 24.9793C78.1649 25.1839 78.7222 25.2787 79.2813 25.2578H79.9975C80.1316 25.252 80.2654 25.2734 80.3908 25.3209C80.5163 25.3684 80.6308 25.4409 80.7274 25.534Z" fill="white"/>
<path d="M82.646 5.25008C82.5066 5.10558 82.3974 4.93469 82.3247 4.74742C82.2521 4.56015 82.2176 4.36026 82.2231 4.15947C82.2109 3.95251 82.2455 3.74546 82.3243 3.55373C82.4032 3.36201 82.5242 3.19054 82.6785 3.05211C82.976 2.79383 83.3584 2.65467 83.7523 2.66138C84.1415 2.65289 84.5195 2.79254 84.8099 3.05211C84.9598 3.19316 85.0769 3.36547 85.1529 3.55683C85.2289 3.74819 85.2619 3.95393 85.2495 4.15947C85.2534 4.36151 85.2165 4.56226 85.141 4.74969C85.0656 4.93712 84.953 5.10737 84.8102 5.25024C84.6673 5.39311 84.4971 5.50565 84.3098 5.58113C84.1224 5.6566 83.9218 5.69345 83.7199 5.68947C83.5201 5.69563 83.3212 5.6597 83.1362 5.58401C82.9513 5.50831 82.7842 5.39454 82.646 5.25008ZM83.0528 26.9672C82.9613 26.8756 82.8896 26.7663 82.842 26.6459C82.7945 26.5255 82.7721 26.3967 82.7762 26.2673V10.4102C82.7691 10.2781 82.7901 10.1459 82.8377 10.0225C82.8854 9.89907 82.9587 9.78716 83.0528 9.69415C83.2423 9.51799 83.4937 9.42397 83.7523 9.43261C83.8834 9.42102 84.0154 9.43832 84.1391 9.48329C84.2628 9.52827 84.3752 9.59982 84.4683 9.69292C84.5614 9.78601 84.633 9.89839 84.678 10.0221C84.723 10.1459 84.7403 10.278 84.7288 10.4092V26.2668C84.7375 26.5255 84.6435 26.7771 84.4674 26.9667C84.3745 27.0608 84.2626 27.1341 84.1392 27.1818C84.0159 27.2295 83.8838 27.2505 83.7517 27.2434C83.6225 27.2474 83.4939 27.2249 83.3737 27.1773C83.2535 27.1297 83.1443 27.0586 83.0528 26.9672Z" fill="white"/>
<path d="M99.1826 10.1571C100.418 10.7974 101.436 11.7886 102.11 13.0063C102.846 14.3812 103.211 15.9244 103.168 17.4833V26.2417C103.168 26.5009 103.065 26.7494 102.882 26.9326C102.699 27.1159 102.45 27.2188 102.191 27.2188C101.932 27.2188 101.684 27.1159 101.501 26.9326C101.318 26.7494 101.215 26.5009 101.215 26.2417V17.4833C101.215 15.4214 100.634 13.8476 99.4738 12.762C98.2319 11.646 96.6022 11.0616 94.9344 11.1342C93.8512 11.12 92.7785 11.3481 91.7946 11.8017C90.8974 12.2072 90.1271 12.8486 89.5654 13.6575C89.0298 14.4261 88.7454 15.3418 88.7514 16.2787V26.2417C88.7601 26.5004 88.6662 26.7521 88.49 26.9416C88.3969 27.0358 88.285 27.1091 88.1615 27.1568C88.0381 27.2045 87.9059 27.2255 87.7738 27.2183C87.6445 27.2225 87.5157 27.2002 87.3953 27.1526C87.275 27.105 87.1657 27.0332 87.0742 26.9417C86.9827 26.8501 86.911 26.7408 86.8634 26.6204C86.8159 26.5 86.7935 26.3711 86.7977 26.2417V12.0407C86.7906 11.9086 86.8116 11.7764 86.8593 11.653C86.907 11.5296 86.9802 11.4177 87.0743 11.3246C87.2639 11.1486 87.5153 11.0546 87.7738 11.0631C87.9049 11.0515 88.0369 11.0688 88.1606 11.1138C88.2843 11.1587 88.3966 11.2303 88.4897 11.3234C88.5827 11.4165 88.6542 11.5289 88.6992 11.6526C88.7441 11.7764 88.7614 11.9085 88.7498 12.0397V12.0773C89.4788 11.1725 90.402 10.4436 91.4511 9.94475C92.5388 9.42912 93.7293 9.16745 94.9329 9.17948C96.408 9.15368 97.867 9.48932 99.1826 10.1571Z" fill="white"/>
<path d="M138.139 10.3783C139.507 11.1507 140.638 12.2822 141.41 13.6507C142.189 15.0729 142.597 16.6686 142.597 18.2904C142.597 19.9122 142.189 21.5079 141.41 22.9301C140.638 24.2987 139.507 25.4301 138.139 26.2019C136.72 27.0022 135.115 27.4123 133.486 27.3904C132.032 27.411 130.594 27.0694 129.304 26.3965C128.096 25.7711 127.079 24.8315 126.359 23.6765V33.0208C126.371 33.1519 126.353 33.2839 126.308 33.4076C126.263 33.5313 126.192 33.6436 126.099 33.7366C126.006 33.8297 125.893 33.9013 125.77 33.9463C125.646 33.9913 125.514 34.0088 125.383 33.9974C125.125 34.0062 124.873 33.9121 124.684 33.7358C124.589 33.6429 124.516 33.531 124.468 33.4076C124.421 33.2841 124.4 33.1519 124.407 33.0197V18.1115C124.41 16.5094 124.836 14.9365 125.644 13.5529C126.424 12.2075 127.554 11.0991 128.914 10.3459C130.333 9.58176 131.92 9.18446 133.531 9.19012C135.142 9.19579 136.727 9.60423 138.14 10.3783H138.139ZM137.13 24.6228C138.206 24.0023 139.094 23.1024 139.701 22.0184C140.32 20.8794 140.645 19.6033 140.645 18.3066C140.645 17.0099 140.32 15.7338 139.701 14.5949C138.734 12.9468 137.156 11.7472 135.31 11.2564C133.464 10.7656 131.499 11.0234 129.842 11.9737C128.769 12.6009 127.886 13.5066 127.287 14.5949C126.678 15.7373 126.36 17.012 126.36 18.3066C126.36 19.6012 126.678 20.876 127.287 22.0184C127.884 23.1041 128.768 24.005 129.842 24.6228C130.957 25.2421 132.211 25.567 133.486 25.567C134.762 25.567 136.016 25.2421 137.131 24.6228H137.13Z" fill="white"/>
<path d="M156.872 26.2244C155.504 25.453 154.373 24.3215 153.602 22.9526C152.823 21.5304 152.414 19.9347 152.414 18.3129C152.414 16.6911 152.823 15.0954 153.602 13.6732C154.373 12.3045 155.504 11.1729 156.872 10.4008C158.294 9.62121 159.889 9.21252 161.509 9.21252C163.13 9.21252 164.725 9.62121 166.147 10.4008C167.514 11.1731 168.645 12.3046 169.417 13.6732C170.196 15.0953 170.605 16.691 170.605 18.3129C170.605 19.9348 170.196 21.5305 169.417 22.9526C168.646 24.3213 167.515 25.4528 166.147 26.2244C164.725 27.0041 163.13 27.4128 161.509 27.4128C159.889 27.4128 158.294 27.0041 156.872 26.2244ZM165.171 24.6453C166.244 24.0271 167.127 23.1263 167.725 22.0409C168.334 20.8985 168.652 19.6237 168.652 18.3291C168.652 17.0345 168.334 15.7598 167.725 14.6174C167.125 13.5294 166.242 12.6238 165.171 11.9962C164.354 11.5115 163.448 11.1947 162.507 11.0642C161.566 10.9337 160.609 10.9922 159.691 11.2362C158.773 11.4803 157.913 11.905 157.161 12.4856C156.408 13.0661 155.78 13.7908 155.311 14.6174C154.691 15.7564 154.367 17.0325 154.367 18.3291C154.367 19.6258 154.691 20.9018 155.311 22.0409C155.917 23.1252 156.805 24.0251 157.881 24.6453C158.996 25.2645 160.251 25.5895 161.526 25.5895C162.801 25.5895 164.056 25.2645 165.171 24.6453Z" fill="white"/>
<path d="M21.71 24.8132C20.7482 25.4942 19.5989 25.8598 18.4206 25.8598C17.2424 25.8598 16.0931 25.4942 15.1312 24.8132L5.79995 18.4986L0.60498 22.0163L15.287 31.9548C16.2032 32.6032 17.2979 32.9515 18.4201 32.9515C19.5424 32.9515 20.637 32.6032 21.5532 31.9548L36.2352 22.0163L31.0403 18.5002L21.71 24.8132Z" fill="white"/>
<path d="M16.0285 15.9334L4.81934 8.34725L16.0285 0.762631C16.728 0.267483 17.5637 0.00158691 18.4205 0.00158691C19.2773 0.00158691 20.1131 0.267483 20.8125 0.762631L32.0201 8.34725L20.811 15.9319C20.1118 16.4269 19.2765 16.6929 18.42 16.6931C17.5635 16.6934 16.728 16.428 16.0285 15.9334Z" fill="white"/>
<path d="M21.3044 17.1397C20.4608 17.7368 19.4528 18.0575 18.4194 18.0575C17.386 18.0575 16.378 17.7368 15.5344 17.1397L7.24814 11.5312L2.52002 14.7314L15.6238 23.5997C16.4416 24.1788 17.4188 24.4898 18.4207 24.4898C19.4226 24.4898 20.3998 24.1788 21.2176 23.5997L34.3219 14.7309L29.5938 11.5307L21.3044 17.1397Z" fill="white"/>
<path opacity="0.72" d="M36.2359 22.0163L31.0409 18.5007L21.7101 24.8132C20.7483 25.4942 19.599 25.8599 18.4207 25.8599C17.2425 25.8599 16.0932 25.4942 15.1313 24.8132L18.3726 26.8255C20.04 27.8987 21.99 28.4484 23.972 28.4039C25.954 28.3595 27.8775 27.7229 29.495 26.576L36.2359 22.0163Z" fill="url(#paint0_linear_34_7195)"/>
<path opacity="0.72" d="M34.3201 14.7356L29.5904 11.5359L21.3052 17.1444C20.4616 17.7416 19.4536 18.0622 18.4202 18.0622C17.3868 18.0622 16.3788 17.7416 15.5352 17.1444L18.4586 19.0625C19.8732 20.0301 21.5499 20.5412 23.2633 20.5272C24.9768 20.5132 26.6449 19.9747 28.0434 18.984L34.3201 14.7356Z" fill="url(#paint1_linear_34_7195)"/>
<path d="M121.891 13.6016C121.14 12.2424 120.024 11.1202 118.669 10.3616C117.232 9.56512 115.61 9.16086 113.968 9.1894C112.351 9.17005 110.758 9.57418 109.346 10.3616C107.974 11.1268 106.838 12.2528 106.06 13.6178C105.248 15.0452 104.832 16.6643 104.857 18.3066C104.829 19.9505 105.233 21.573 106.029 23.0112C106.787 24.3669 107.908 25.4834 109.267 26.2344C110.708 27.0211 112.328 27.4194 113.97 27.3904C115.481 27.4205 116.972 27.0379 118.282 26.2836C119.5 25.5766 120.48 24.5224 121.096 23.2555V24.6876C121.115 26.0189 120.802 27.334 120.185 28.5134C119.608 29.6196 118.742 30.5482 117.679 31.2C116.601 31.8564 115.359 32.1956 114.096 32.1786H113.958C113.838 32.1778 113.719 32.2008 113.607 32.2462C113.496 32.2916 113.394 32.3586 113.309 32.4433C113.224 32.528 113.156 32.6288 113.109 32.7398C113.063 32.8509 113.039 32.97 113.039 33.0904C113.039 33.332 113.135 33.5636 113.306 33.7344C113.477 33.9053 113.708 34.0015 113.95 34.0021H114.096C115.686 34.0212 117.251 33.6051 118.622 32.7988C119.992 31.9925 121.117 30.8266 121.873 29.4272C122.662 27.9743 123.066 26.3432 123.045 24.6897V18.3066C123.074 16.6648 122.676 15.0435 121.891 13.6016ZM120.181 22.067C119.592 23.1448 118.713 24.036 117.644 24.6395C116.508 25.2485 115.239 25.5671 113.95 25.5671C112.662 25.5671 111.393 25.2485 110.257 24.6395C109.187 24.0363 108.308 23.1451 107.719 22.067C107.097 20.9129 106.783 19.6177 106.807 18.3066C106.784 16.9904 107.098 15.6901 107.719 14.5295C108.304 13.4446 109.184 12.5472 110.257 11.9408C111.393 11.3317 112.662 11.013 113.95 11.013C115.239 11.013 116.508 11.3317 117.644 11.9408C118.716 12.5475 119.596 13.4448 120.181 14.5295C120.802 15.6902 121.116 16.9904 121.093 18.3066C121.117 19.6177 120.803 20.9129 120.181 22.067Z" fill="white"/>
<path d="M151.585 9.21033C150.94 9.21133 150.299 9.31027 149.684 9.50377C147.965 9.8898 146.513 11.3016 145.935 11.934C145.897 11.799 145.825 11.6759 145.726 11.5757C145.631 11.4859 145.518 11.4164 145.395 11.3714C145.272 11.3265 145.141 11.307 145.011 11.3141C144.752 11.3053 144.5 11.3993 144.311 11.5757C144.216 11.6686 144.143 11.7805 144.095 11.904C144.048 12.0274 144.026 12.1596 144.034 12.2918V26.2391C144.029 26.3685 144.052 26.4974 144.099 26.6178C144.147 26.7382 144.219 26.8475 144.31 26.9391C144.402 27.0306 144.511 27.1024 144.632 27.1499C144.752 27.1975 144.881 27.2199 145.01 27.2157C145.142 27.2228 145.274 27.2018 145.398 27.1541C145.521 27.1064 145.633 27.0331 145.726 26.939C145.902 26.7494 145.996 26.4978 145.987 26.2391V16.3409C145.974 15.3916 146.222 14.4569 146.703 13.6387C147.178 12.8378 147.866 12.1842 148.69 11.7504C149.825 11.1603 151.118 10.9439 152.383 11.1321C152.636 11.1707 152.892 11.1923 153.148 11.197C153.348 11.2074 153.547 11.1563 153.717 11.0505C153.825 10.9547 153.912 10.8369 153.971 10.7049C154.03 10.5729 154.06 10.4298 154.059 10.2853C154.058 9.56864 153.234 9.21033 151.585 9.21033Z" fill="white"/>
<defs>
<linearGradient id="paint0_linear_34_7195" x1="15.1313" y1="23.4536" x2="36.2359" y2="23.4536" gradientUnits="userSpaceOnUse">
<stop offset="0.001"/>
<stop offset="0.092" stop-opacity="0.796"/>
<stop offset="1" stop-opacity="0"/>
</linearGradient>
<linearGradient id="paint1_linear_34_7195" x1="15.5352" y1="16.0317" x2="34.3201" y2="16.0317" gradientUnits="userSpaceOnUse">
<stop offset="0.001"/>
<stop offset="0.092" stop-opacity="0.796"/>
<stop offset="1" stop-opacity="0"/>
</linearGradient>
</defs>
</svg>
